<svg width="30" height="30" viewBox="0 0 30 30" fill="none" xmlns="http://www.w3.org/2000/svg">
<path d="M28.2012 13.2009L16.5343 13.2361V1.79881C16.5343 0.802249 15.732 0 14.7355 0C13.7392 0 12.9367 0.802249 12.9367 1.79881L12.9719 13.2012H1.79881C0.802249 13.2012 0 14.0034 0 15C0 15.9962 0.802249 16.7985 1.79881 16.7985H12.9543V28.2012C12.9543 29.1971 13.7565 30 14.7531 30C15.7497 30 16.5519 29.1971 16.5519 28.2012V16.7988H28.2012C29.1978 16.7988 30 15.9959 30 15C30 14.0031 29.1888 13.2009 28.2012 13.2009Z" fill="#FFFEFE"/>
</svg>
