<svg width="20" height="20" viewBox="0 0 20 20" fill="none" xmlns="http://www.w3.org/2000/svg">
<path d="M18.8008 8.80058L11.0229 8.8241V1.1992C11.0229 0.534833 10.488 0 9.82365 0C9.15949 0 8.62444 0.534833 8.62444 1.1992L8.64796 8.8008H1.1992C0.534833 8.8008 0 9.33563 0 10C0 10.6642 0.534833 11.199 1.1992 11.199H8.6362V18.8008C8.6362 19.4647 9.17103 20 9.8354 20C10.4998 20 11.0346 19.4647 11.0346 18.8008V11.1992H18.8008C19.4652 11.1992 20 10.6639 20 10C20 9.33541 19.4592 8.80058 18.8008 8.80058Z" fill="#FFFEFE"/>
</svg>
