<svg width="30" height="30" viewBox="0 0 30 30" fill="none" xmlns="http://www.w3.org/2000/svg">
<g clip-path="url(#clip0)">
<path d="M28.8968 23.0814L20.515 14.6983L28.2929 6.92045C29.7644 5.45087 29.7644 3.06718 28.2929 1.59632C26.8227 0.126101 24.439 0.126739 22.97 1.59632L15.1909 9.37422L7.0314 1.21411C5.56055 -0.256105 3.17686 -0.256105 1.70727 1.21411C0.23769 2.68497 0.23769 5.06739 1.70727 6.53825L9.86738 14.6983L1.10339 23.4617C-0.36747 24.9332 -0.36747 27.3156 1.10339 28.7865C2.57361 30.256 4.95666 30.256 6.42625 28.7865L15.1909 20.0225L23.5739 28.4055C25.0441 29.8758 27.4272 29.8758 28.8968 28.4055C30.3683 26.934 30.3676 24.5503 28.8968 23.0814Z" fill="black"/>
</g>
<defs>
<clipPath id="clip0">
<rect width="30" height="30" fill="white"/>
</clipPath>
</defs>
</svg>
