<svg width="512" height="512" viewBox="0 0 512 512" fill="none" xmlns="http://www.w3.org/2000/svg">
<path d="M373.953 291.285C366.246 283.609 356.723 277.746 346.402 274.328L345.488 274.023L250.34 252.387L271.699 347.789L272.012 348.734C275.445 359.105 281.34 368.672 289.062 376.398L427.09 510.641L512 425.535L373.953 291.285ZM426.668 454.48L317.242 348.062C316.5 347.312 315.801 346.527 315.141 345.703L343.383 317.48C344.223 318.156 345.031 318.879 345.793 319.641L455.121 425.965L426.668 454.48ZM329.602 471.57L370.695 511.535H59.9453C26.8906 511.535 0 484.645 0 451.59V59.9453C0 26.8906 26.8906 0 59.9453 0H451.59C484.645 0 511.535 26.8906 511.535 59.9453V369.34L471.57 330.473V59.9453C471.57 48.9258 462.605 39.9648 451.59 39.9648H59.9453C48.9258 39.9648 39.9648 48.9258 39.9648 59.9453V451.59C39.9648 462.605 48.9258 471.57 59.9453 471.57H329.602ZM411.625 132.879H99.9102V92.9141H411.625V132.879ZM411.625 212.805H99.9102V172.844H411.625V212.805ZM99.9102 252.77H211.809V292.734H99.9102V252.77Z" fill="#41055A"/>
</svg>
